<svg width="66" height="28" fill="none" xmlns="http://www.w3.org/2000/svg"><path d="M11.09 12.568h10.195v13.325c-.68.222-1.365.427-2.056.615-.692.176-1.413.328-2.163.457-.738.117-1.517.21-2.337.281-.81.07-1.67.106-2.584.106-1.922 0-3.627-.282-5.116-.844-1.476-.574-2.724-1.418-3.744-2.531-1.008-1.125-1.775-2.508-2.303-4.149-.527-1.652-.79-3.556-.79-5.713 0-2.015.292-3.838.878-5.467C1.656 7.02 2.518 5.637 3.654 4.5c1.149-1.148 2.555-2.027 4.22-2.637 1.675-.62 3.59-.931 5.747-.931 1.371 0 2.713.146 4.025.44 1.313.292 2.514.673 3.604 1.142l-1.81 4.359c-.797-.398-1.7-.732-2.708-1.002a11.997 11.997 0 0 0-3.146-.404c-1.195 0-2.274.21-3.234.633-.95.41-1.764.996-2.444 1.757-.68.762-1.201 1.682-1.564 2.76-.364 1.078-.545 2.28-.545 3.604 0 1.265.123 2.425.369 3.48.258 1.043.656 1.945 1.195 2.707a5.531 5.531 0 0 0 2.074 1.776c.856.421 1.876.632 3.06.632.773 0 1.423-.035 1.95-.105.54-.07 1.043-.152 1.512-.246v-5.361h-4.87v-4.536zM32.78 27H27.42V1.3h14.73v4.466h-9.369v6.627H41.5v4.447h-8.719V27zM58.094 5.467c-1.043 0-1.969.205-2.778.615a5.522 5.522 0 0 0-2.021 1.74c-.54.75-.95 1.67-1.23 2.76-.282 1.078-.422 2.291-.422 3.639 0 1.37.123 2.59.369 3.656.258 1.066.644 1.969 1.16 2.707a5.224 5.224 0 0 0 2.004 1.67c.82.375 1.793.562 2.918.562a14.23 14.23 0 0 0 3.129-.351 29.908 29.908 0 0 0 3.427-1.002v4.57a16.111 16.111 0 0 1-3.357 1.002c-.574.106-1.166.182-1.775.229-.598.058-1.243.088-1.934.088-1.98 0-3.697-.317-5.15-.95-1.453-.633-2.655-1.523-3.604-2.672-.95-1.148-1.652-2.53-2.11-4.148-.456-1.617-.685-3.416-.685-5.397 0-1.945.264-3.726.791-5.343.527-1.63 1.301-3.03 2.32-4.201 1.02-1.172 2.28-2.08 3.78-2.725 1.5-.656 3.222-.984 5.168-.984 1.277 0 2.554.164 3.832.492 1.289.316 2.52.756 3.691 1.318l-1.758 4.43a29.108 29.108 0 0 0-2.9-1.195 8.653 8.653 0 0 0-2.865-.51z" fill="#fff"/></svg>