<svg width="28" height="28" fill="none" xmlns="http://www.w3.org/2000/svg"><path d="M14 .438C6.522.438.437 6.521.437 14S6.522 27.563 14 27.563c7.478 0 13.563-6.085 13.563-13.563C27.563 6.522 21.477.437 14 .437zm8.967 6.254a11.53 11.53 0 012.616 7.216c-.382-.08-4.212-.857-8.066-.373a35.95 35.95 0 00-1.018-2.275c4.283-1.75 6.224-4.238 6.468-4.568zm-1.288-1.34c-.208.297-1.952 2.64-6.071 4.185a61.833 61.833 0 00-4.323-6.782c3.674-.885 7.545.07 10.394 2.597zM9.075 3.534a73.922 73.922 0 014.295 6.7C7.95 11.673 3.178 11.652 2.66 11.645a11.627 11.627 0 016.415-8.111zm-6.66 10.484c0-.119.003-.237.006-.354.507.01 6.121.082 11.906-1.649.332.65.649 1.308.94 1.966-4.19 1.18-7.996 4.568-9.873 7.782a11.538 11.538 0 01-2.978-7.745zm4.474 9.139c1.21-2.474 4.494-5.667 9.165-7.26 1.626 4.226 2.299 7.768 2.471 8.784A11.561 11.561 0 016.89 23.157zm13.584.464c-.12-.705-.736-4.096-2.25-8.26 3.63-.58 6.819.37 7.215.495a11.605 11.605 0 01-4.965 7.765z" fill="#52525B"/></svg>