<svg width="29" height="28" fill="none" xmlns="http://www.w3.org/2000/svg"><g clip-path="url(#clip0)"><path d="M28.063 14C28.063 6.508 21.992.437 14.5.437 7.008.438.937 6.508.937 14c0 6.77 4.96 12.38 11.444 13.398v-9.477H8.936V14h3.445v-2.988c0-3.399 2.023-5.276 5.122-5.276 1.485 0 3.037.264 3.037.264v3.336h-1.71c-1.685 0-2.21 1.046-2.21 2.118V14h3.76l-.601 3.92h-3.16v9.478C23.103 26.38 28.063 20.77 28.063 14z" fill="#52525B"/></g><defs><clipPath id="clip0"><path fill="#fff" d="M.5 0h28v28H.5z"/></clipPath></defs></svg>