<svg width="26" height="26" fill="none" xmlns="http://www.w3.org/2000/svg"><path d="M13.255 6.711a6.274 6.274 0 00-6.283 6.284 6.274 6.274 0 006.283 6.283 6.274 6.274 0 006.284-6.283 6.274 6.274 0 00-6.284-6.284zm0 10.369a4.093 4.093 0 01-4.085-4.085 4.09 4.09 0 014.085-4.086 4.09 4.09 0 014.086 4.086 4.093 4.093 0 01-4.086 4.085zm8.007-10.626c0 .815-.657 1.466-1.466 1.466a1.466 1.466 0 111.466-1.466zm4.161 1.487c-.093-1.963-.541-3.702-1.98-5.135-1.432-1.433-3.171-1.881-5.135-1.98-2.023-.114-8.088-.114-10.111 0C6.239.92 4.5 1.369 3.062 2.802 1.623 4.234 1.18 5.973 1.082 7.936c-.115 2.023-.115 8.088 0 10.112.093 1.963.541 3.702 1.98 5.135 1.438 1.433 3.172 1.881 5.135 1.98 2.023.114 8.088.114 10.111 0 1.964-.093 3.703-.542 5.136-1.98 1.433-1.433 1.881-3.172 1.98-5.135.114-2.024.114-8.083 0-10.107zM22.81 20.22a4.135 4.135 0 01-2.33 2.33c-1.613.64-5.44.492-7.224.492-1.782 0-5.616.142-7.224-.492a4.136 4.136 0 01-2.33-2.33c-.64-1.614-.492-5.442-.492-7.224 0-1.783-.142-5.617.493-7.225a4.136 4.136 0 012.33-2.33c1.612-.64 5.44-.492 7.223-.492 1.783 0 5.617-.142 7.225.493a4.136 4.136 0 012.33 2.33c.64 1.613.492 5.44.492 7.224 0 1.782.147 5.616-.493 7.224z" fill="#52525B"/></svg>