<svg width="25" height="28" fill="none" xmlns="http://www.w3.org/2000/svg"><g clip-path="url(#clip0)"><path d="M.5 1.75v24.5H25V1.75H.5zm20.355 5.802L19.542 8.81a.385.385 0 00-.148.367v9.258a.377.377 0 00.148.367l1.285 1.257v.28h-6.453v-.269l1.33-1.29c.13-.132.13-.17.13-.367v-7.486l-3.697 9.384h-.497l-4.304-9.384v6.289a.865.865 0 00.24.721l1.729 2.095v.279H4.394v-.279l1.728-2.095a.837.837 0 00.224-.721V9.942a.624.624 0 00-.208-.536L4.602 7.552v-.279h4.774l3.686 8.094 3.243-8.088h4.55v.273z" fill="#52525B"/></g><defs><clipPath id="clip0"><path fill="#fff" d="M.5 0H25v28H.5z"/></clipPath></defs></svg>